<svg width="32" height="32" viewBox="0 0 32 32" fill="none" xmlns="http://www.w3.org/2000/svg">
<path d="M16 4C9.373 4 4 9.373 4 16C4 22.627 9.373 28 16 28H17C18.657 28 20 26.657 20 25C20 25 20 22.738 20 22C20 20.895 20.895 20 22 20C22.738 20 26 20 26 20C27.105 20 28 19.105 28 18C28 18 28 16.625 28 16C28 9.373 22.627 4 16 4ZM16 6C17.105 6 18 6.895 18 8C18 9.105 17.105 10 16 10C14.895 10 14 9.105 14 8C14 6.895 14.895 6 16 6ZM8 18C6.895 18 6 17.105 6 16C6 14.895 6.895 14 8 14C9.105 14 10 14.895 10 16C10 17.105 9.105 18 8 18ZM15.5 26C14.119 26 13 24.881 13 23.5C13 22.119 14.119 21 15.5 21C16.881 21 18 22.119 18 23.5C18 24.881 16.881 26 15.5 26ZM24 18C22.895 18 22 17.105 22 16C22 14.895 22.895 14 24 14C25.105 14 26 14.895 26 16C26 17.105 25.105 18 24 18ZM23.071 11.757C22.29 12.538 21.024 12.538 20.243 11.757C19.462 10.976 19.462 9.71 20.243 8.929C21.024 8.148 22.29 8.148 23.071 8.929C23.852 9.71 23.852 10.976 23.071 11.757ZM8.929 11.757C8.148 10.976 8.148 9.71 8.929 8.929C9.71 8.148 10.976 8.148 11.757 8.929C12.538 9.71 12.538 10.976 11.757 11.757C10.976 12.538 9.71 12.538 8.929 11.757Z" fill="white"/>
</svg>
