<svg width="32" height="32" viewBox="0 0 32 32" fill="none" xmlns="http://www.w3.org/2000/svg">
<path d="M16.6473 3.00014C16.3461 3.00482 16.059 3.12803 15.8491 3.34273C15.6391 3.55743 15.5236 3.84609 15.5277 4.14534V5.2751C15.5256 5.4248 15.5534 5.57344 15.6096 5.71236C15.6658 5.85129 15.7493 5.97773 15.8551 6.08435C15.9609 6.19096 16.087 6.27562 16.2261 6.33341C16.3651 6.39119 16.5144 6.42095 16.6651 6.42095C16.8158 6.42095 16.9651 6.39119 17.1041 6.33341C17.2432 6.27562 17.3693 6.19096 17.4751 6.08435C17.5809 5.97773 17.6644 5.85129 17.7206 5.71236C17.7768 5.57344 17.8046 5.4248 17.8025 5.2751V4.14534C17.8046 3.99419 17.7761 3.84416 17.7188 3.70414C17.6614 3.56412 17.5764 3.43695 17.4687 3.33016C17.361 3.22338 17.2328 3.13915 17.0917 3.08246C16.9506 3.02577 16.7995 2.99778 16.6473 3.00014ZM22.4388 6.40486C22.2921 6.40486 22.1693 6.514 22.1522 6.65861L22.0189 7.80161C21.4692 7.99139 20.9726 8.28048 20.5416 8.65113L19.4753 8.19437C19.3411 8.13676 19.1838 8.187 19.111 8.31353L18.0469 10.145C17.9729 10.2704 18.0075 10.4309 18.1246 10.5179L19.0421 11.1953C18.9882 11.4735 18.9555 11.7598 18.9555 12.0536C18.9555 12.3475 18.9882 12.6338 19.0421 12.912L18.1246 13.5894C18.0075 13.6753 17.9741 13.8358 18.0469 13.9623L19.111 15.7938C19.1838 15.9203 19.3411 15.9727 19.4753 15.9151L20.5416 15.4562C20.9726 15.8268 21.4692 16.1159 22.0189 16.3057L22.1522 17.4487C22.1693 17.5933 22.2921 17.7024 22.4388 17.7024H24.5692C24.7159 17.7024 24.8387 17.5933 24.8558 17.4487L24.9891 16.3057C25.5393 16.1159 26.0373 15.8271 26.4686 15.4562L27.5327 15.9107C27.6669 15.9683 27.8242 15.9181 27.897 15.7915L28.9611 13.9601C29.035 13.8347 29.0005 13.6742 28.8834 13.5872L27.9659 12.912C28.0198 12.6338 28.0547 12.3475 28.0547 12.0536C28.0547 11.7598 28.0198 11.4735 27.9659 11.1953L28.8834 10.5179C29.0005 10.432 29.0339 10.2715 28.9611 10.145L27.897 8.31353C27.8242 8.187 27.6669 8.13455 27.5327 8.19217L26.4686 8.65113C26.0373 8.28018 25.5393 7.99138 24.9891 7.80161L24.8558 6.65861C24.8387 6.514 24.7159 6.40486 24.5692 6.40486H22.4388ZM7.80576 6.64316C7.57921 6.64321 7.35784 6.71044 7.17001 6.83625C6.98218 6.96206 6.83644 7.14071 6.75149 7.34931C6.66653 7.55791 6.64621 7.78695 6.69314 8.0071C6.74007 8.22724 6.85211 8.42844 7.0149 8.58493L7.81909 9.38371C7.92389 9.49213 8.04943 9.5787 8.18834 9.63833C8.32725 9.69796 8.47674 9.72946 8.62806 9.73099C8.77938 9.73252 8.92948 9.70404 9.06959 9.64723C9.20969 9.59041 9.33697 9.5064 9.44397 9.40012C9.55098 9.29383 9.63556 9.16741 9.69276 9.02825C9.74996 8.88909 9.77863 8.73999 9.77709 8.58969C9.77555 8.43939 9.74383 8.2909 9.6838 8.15293C9.62376 8.01495 9.53661 7.89026 9.42745 7.78616L8.62327 6.98739C8.5172 6.8785 8.39017 6.79191 8.24972 6.73277C8.10928 6.67364 7.9583 6.64316 7.80576 6.64316ZM16.2963 8.68202C12.0777 8.87634 8.70324 12.3361 8.70324 16.5727C8.70324 19.719 10.5675 22.4344 13.2529 23.7065V26.7405C13.2529 27.9866 14.2731 29 15.5277 29H17.8025C19.0571 29 20.0773 27.9866 20.0773 26.7405V23.7065C21.7323 22.9224 23.0712 21.5881 23.8583 19.9443C23.7343 19.9499 23.6147 19.9619 23.4896 19.9619C19.0923 19.9619 15.5277 16.4213 15.5277 12.0536C15.5277 10.8459 15.8095 9.70671 16.2963 8.68202ZM23.5051 10.0766C24.6038 10.0766 25.4956 10.9623 25.4956 12.0536C25.4956 13.1461 24.6038 14.0307 23.5051 14.0307C22.4064 14.0307 21.5146 13.1461 21.5146 12.0536C21.5146 10.9623 22.4064 10.0766 23.5051 10.0766ZM4.15361 15.4429C4.00289 15.4408 3.85325 15.4685 3.71338 15.5243C3.57352 15.5801 3.44622 15.663 3.33888 15.7681C3.23154 15.8732 3.14631 15.9985 3.08813 16.1366C3.02996 16.2747 3 16.4229 3 16.5727C3 16.7224 3.02996 16.8706 3.08813 17.0087C3.14631 17.1469 3.23154 17.2721 3.33888 17.3772C3.44622 17.4824 3.57352 17.5652 3.71338 17.6211C3.85325 17.6769 4.00289 17.7045 4.15361 17.7024H5.29102C5.44174 17.7045 5.59138 17.6769 5.73124 17.6211C5.87111 17.5652 5.99841 17.4824 6.10574 17.3772C6.21308 17.2721 6.29831 17.1469 6.35649 17.0087C6.41467 16.8706 6.44462 16.7224 6.44462 16.5727C6.44462 16.4229 6.41467 16.2747 6.35649 16.1366C6.29831 15.9985 6.21308 15.8732 6.10574 15.7681C5.99841 15.663 5.87111 15.5801 5.73124 15.5243C5.59138 15.4685 5.44174 15.4408 5.29102 15.4429H4.15361ZM8.60105 23.4196C8.30556 23.4284 8.02509 23.551 7.81909 23.7616L7.0149 24.5604C6.90574 24.6645 6.8186 24.7892 6.75856 24.9272C6.69852 25.0651 6.66681 25.2136 6.66527 25.3639C6.66373 25.5142 6.6924 25.6633 6.7496 25.8025C6.8068 25.9417 6.89138 26.0681 6.99838 26.1744C7.10539 26.2806 7.23267 26.3647 7.37277 26.4215C7.51287 26.4783 7.66298 26.5068 7.8143 26.5052C7.96562 26.5037 8.11511 26.4722 8.25402 26.4126C8.39293 26.3529 8.51846 26.2664 8.62327 26.158L9.42745 25.3592C9.59181 25.2005 9.70407 24.9962 9.74952 24.773C9.79497 24.5499 9.77149 24.3183 9.68216 24.1086C9.59282 23.899 9.4418 23.721 9.24889 23.5981C9.05598 23.4751 8.83017 23.4129 8.60105 23.4196ZM24.6958 23.4196C24.4696 23.4197 24.2484 23.4868 24.0608 23.6123C23.8731 23.7378 23.7274 23.9161 23.6422 24.1243C23.5571 24.3326 23.5364 24.5613 23.5828 24.7812C23.6292 25.0012 23.7406 25.2024 23.9028 25.3592L24.7069 26.158C24.8117 26.2664 24.9373 26.3529 25.0762 26.4126C25.2151 26.4722 25.3646 26.5037 25.5159 26.5052C25.6672 26.5068 25.8173 26.4783 25.9574 26.4215C26.0975 26.3646 26.2248 26.2806 26.3318 26.1744C26.4388 26.0681 26.5234 25.9416 26.5806 25.8025C26.6378 25.6633 26.6665 25.5142 26.6649 25.3639C26.6634 25.2136 26.6317 25.0651 26.5716 24.9272C26.5116 24.7892 26.4245 24.6645 26.3153 24.5604L25.5111 23.7616C25.4051 23.6534 25.2784 23.5674 25.1383 23.5086C24.9983 23.4499 24.8478 23.4196 24.6958 23.4196Z" fill="white"/>
</svg>
