<svg width="32" height="32" viewBox="0 0 32 32" fill="none" xmlns="http://www.w3.org/2000/svg">
<path d="M13.9414 2.00016C13.1314 2.00891 12.3492 2.42152 11.8998 3.15884L11.7436 3.41519C11.5212 3.77919 11.1326 4.00061 10.7038 4.00877L10.4028 4.01561C9.10044 4.04244 8.05967 5.07394 8.03261 6.36602L8.02687 6.66452C8.01804 7.08919 7.79361 7.4751 7.42714 7.6956L7.16864 7.84941C6.05451 8.51791 5.67412 9.92948 6.30236 11.0611L6.44712 11.322C6.6536 11.6948 6.6536 12.1387 6.44712 12.5115L6.30236 12.7735C5.67471 13.9052 6.05566 15.3156 7.16979 15.9841L7.42714 16.1391C7.7942 16.3596 8.01804 16.7444 8.02687 17.169L8.03261 17.4675C8.05967 18.759 9.10044 19.7922 10.4028 19.8191L10.7038 19.8248C11.1321 19.8335 11.5212 20.0549 11.7436 20.4195L11.8987 20.6747C12.3534 21.4196 13.1484 21.8334 13.9678 21.8334C14.3637 21.8334 14.7645 21.7367 15.1363 21.5337L15.4005 21.3902C15.7758 21.1849 16.2252 21.1849 16.6011 21.3902L16.8642 21.5337C18.0054 22.1556 19.4283 21.7789 20.1018 20.6747L20.2581 20.4183C20.4804 20.0543 20.869 19.8329 21.2979 19.8248L21.5977 19.8179C22.9001 19.7911 23.942 18.7596 23.9691 17.4675L23.9748 17.169C23.9836 16.7444 24.2069 16.3584 24.5734 16.1379L24.8319 15.9841C25.9448 15.3156 26.3258 13.9052 25.6982 12.7735L25.5534 12.5115C25.3469 12.1387 25.3469 11.6948 25.5534 11.322L25.6982 11.0611C26.3258 9.92948 25.9449 8.51791 24.8307 7.84941L24.5734 7.6956C24.2063 7.4751 23.9825 7.08919 23.9736 6.66452L23.9679 6.36602C23.9408 5.07453 22.9001 4.04244 21.5977 4.01561L21.2967 4.00877C20.8685 4.00003 20.4793 3.77863 20.2569 3.41405L20.1018 3.15998C19.6518 2.42266 18.8691 2.00891 18.0591 2.00016C17.655 1.99549 17.2436 2.09272 16.8642 2.2998L16.6 2.44335C16.2247 2.64869 15.7753 2.64869 15.3994 2.44335L15.1363 2.2998C14.7569 2.09213 14.3455 1.99608 13.9414 2.00016ZM20.2845 7.88359L21.276 8.51249L15.6809 17.185L10.7532 12.7872L11.5414 11.9213L15.4373 15.3985L20.2845 7.88359ZM22.8316 20.7499C22.4546 20.8922 22.0483 20.977 21.6218 20.9857L21.3208 20.9914C21.2949 20.992 21.2769 21.0023 21.2634 21.0245L21.1071 21.2797C20.5165 22.248 19.5271 22.8618 18.413 22.9773L18.2441 23.3612L16.6597 26.9512L17.85 29.6502C17.9323 29.8375 18.1077 29.9675 18.3119 29.9943C18.3389 29.9978 18.3641 30 18.39 30C18.567 30 18.7372 29.9201 18.8495 29.7812L21.0267 27.0833H24.8618C25.0623 27.0833 25.2493 26.9819 25.3569 26.8145C25.4646 26.6471 25.479 26.4359 25.3948 26.2551L22.8316 20.7499ZM9.1999 20.7601L6.64359 26.2551C6.55947 26.4359 6.57327 26.6459 6.6815 26.8133C6.78856 26.9813 6.97609 27.0833 7.17668 27.0833H11.0117L13.1889 29.7812C13.3007 29.9201 13.4702 30 13.6473 30C13.6726 30 13.6984 29.9978 13.7243 29.9943C13.9284 29.9675 14.1038 29.8375 14.1861 29.6502L17.1664 22.8941C16.8652 22.8194 16.5725 22.7079 16.299 22.5591L16.0324 22.4144C16.0212 22.408 16.0097 22.4053 15.9991 22.4053C15.9891 22.4053 15.9804 22.408 15.9681 22.4144L15.7038 22.558C15.1721 22.8479 14.5714 23.0023 13.9678 23.0023C12.6996 23.0023 11.5504 22.3582 10.8934 21.2808L10.7371 21.0245C10.7236 21.0023 10.7062 20.992 10.6797 20.9914L10.3787 20.9857C9.96396 20.977 9.56814 20.8955 9.1999 20.7601Z" fill="#1E262E"/>
</svg>
